<?xml version="1.0" standalone="no"?>
<!DOCTYPE svg PUBLIC "-//W3C//DTD SVG 20010904//EN"
 "http://www.w3.org/TR/2001/REC-SVG-20010904/DTD/svg10.dtd">
<svg version="1.0" xmlns="http://www.w3.org/2000/svg"
 width="672.000000pt" height="535.000000pt" viewBox="0 0 672.000000 535.000000"
 preserveAspectRatio="xMidYMid meet">

<g transform="translate(0.000000,535.000000) scale(0.100000,-0.100000)"
fill="#000000" stroke="none">
<path d="M0 2675 l0 -2675 3360 0 3360 0 0 2675 0 2675 -3360 0 -3360 0 0
-2675z m3833 2108 l1387 -6 -1 -1436 0 -1436 -412 -305 c-227 -167 -643 -477
-925 -687 -305 -228 -518 -381 -525 -376 -7 3 -354 261 -772 571 -418 310
-831 617 -917 681 l-157 116 -1 1443 0 1442 468 0 c257 0 1091 -3 1855 -7z"/>
<path d="M2583 4493 l-783 -3 0 -1219 0 -1219 780 -579 c429 -318 788 -578
798 -577 14 0 322 226 1395 1022 l177 132 0 1225 0 1225 -792 -2 c-436 -2
-1145 -4 -1575 -5z m1857 -362 l145 -6 3 -632 c2 -503 0 -633 -10 -633 -7 0
-271 124 -587 275 -316 151 -576 273 -578 271 -3 -2 249 -201 559 -442 310
-240 576 -448 591 -463 28 -25 28 -25 25 -146 l-3 -120 -605 -453 c-332 -249
-610 -450 -616 -448 -22 9 -1169 867 -1191 892 l-23 25 0 417 c0 229 4 423 8
429 6 10 164 -58 591 -252 321 -146 585 -264 587 -262 2 2 -258 198 -577 436
-319 239 -587 440 -595 448 -12 12 -14 69 -14 337 0 177 3 326 7 329 8 9 2085
7 2283 -2z"/>
</g>
</svg>
